<svg width="26" height="22" viewBox="0 0 26 22" fill="none" xmlns="http://www.w3.org/2000/svg">
<path d="M7.51416 12.0942C7.33154 12.0942 7.17936 12.0334 7.05762 11.9116C6.93587 11.7843 6.875 11.6294 6.875 11.4468C6.875 11.2697 6.93587 11.1203 7.05762 10.9985C7.17936 10.8713 7.33154 10.8076 7.51416 10.8076H12.6108V4.04248C12.6108 3.8654 12.6717 3.71598 12.7935 3.59424C12.9207 3.46696 13.0729 3.40332 13.25 3.40332C13.4326 3.40332 13.5848 3.46696 13.7065 3.59424C13.8338 3.71598 13.8975 3.8654 13.8975 4.04248V11.4468C13.8975 11.6294 13.8338 11.7843 13.7065 11.9116C13.5848 12.0334 13.4326 12.0942 13.25 12.0942H7.51416ZM13.2583 21.8145C12.0685 21.8145 10.9313 21.6318 9.84668 21.2666C8.76758 20.9069 7.77702 20.395 6.875 19.731C5.97852 19.0669 5.19824 18.2839 4.53418 17.3818C3.87012 16.4854 3.35547 15.4976 2.99023 14.4185C2.63053 13.3338 2.45068 12.1966 2.45068 11.0068C2.45068 9.81152 2.63053 8.67432 2.99023 7.59521C3.35547 6.51611 3.87012 5.52555 4.53418 4.62354C5.19824 3.72152 5.97852 2.94124 6.875 2.28271C7.77702 1.61865 8.76758 1.104 9.84668 0.73877C10.9313 0.373535 12.0685 0.190918 13.2583 0.190918C14.4536 0.190918 15.5908 0.373535 16.6699 0.73877C17.749 1.104 18.7396 1.61865 19.6416 2.28271C20.5436 2.94124 21.3239 3.72152 21.9824 4.62354C22.6465 5.52555 23.1611 6.51611 23.5264 7.59521C23.8916 8.67432 24.0742 9.81152 24.0742 11.0068C24.0742 12.1966 23.8916 13.3338 23.5264 14.4185C23.1611 15.4976 22.6465 16.4854 21.9824 17.3818C21.3239 18.2839 20.5436 19.0669 19.6416 19.731C18.7396 20.395 17.749 20.9069 16.6699 21.2666C15.5908 21.6318 14.4536 21.8145 13.2583 21.8145ZM13.2583 20.2705C14.2821 20.2705 15.256 20.1128 16.1802 19.7974C17.1099 19.4875 17.9593 19.0475 18.7285 18.4775C19.5033 17.9131 20.1729 17.2463 20.7373 16.4771C21.3073 15.7023 21.7472 14.8529 22.0571 13.9287C22.367 13.0046 22.522 12.0306 22.522 11.0068C22.522 9.98307 22.367 9.00911 22.0571 8.08496C21.7472 7.15527 21.3073 6.30583 20.7373 5.53662C20.1729 4.76188 19.5033 4.09229 18.7285 3.52783C17.9593 2.95785 17.1099 2.5179 16.1802 2.20801C15.256 1.89811 14.2821 1.74316 13.2583 1.74316C12.2345 1.74316 11.2606 1.89811 10.3364 2.20801C9.41227 2.5179 8.56283 2.95785 7.78809 3.52783C7.01888 4.09229 6.34928 4.76188 5.7793 5.53662C5.21484 6.30583 4.7749 7.15527 4.45947 8.08496C4.14958 9.00911 3.99463 9.98307 3.99463 11.0068C3.99463 12.0306 4.14958 13.0046 4.45947 13.9287C4.7749 14.8529 5.21484 15.7023 5.7793 16.4771C6.34928 17.2463 7.01888 17.9131 7.78809 18.4775C8.56283 19.0475 9.41227 19.4875 10.3364 19.7974C11.2606 20.1128 12.2345 20.2705 13.2583 20.2705Z" fill="#6F5DB7"/>
</svg>
